# xmcd CD database file
#
# Track frame offsets:
#	150
#	21123
#	39308
#	64313
#	80195
#	98148
#	118310
#	137948
#	166740
#	185918
#	199330
#	217980
#	239730
#	261930
#	279055
#
# Disc length: 4001 seconds
#
# Revision: 3
# Processed by: cddbd v1.5.1PL0 Copyright (c) Steve Scherf et al.
# Submitted via: CDex 1.51
#
DISCID=e50f9f0f
DTITLE=J - Complete Blast List
DYEAR=2004
DGENRE=Rock
TTITLE0=stAy
TTITLE1=BURN OUT
TTITLE2=Feel Your Blaze
TTITLE3=Die for you
TTITLE4=Sixteen
TTITLE5=PYROMANIA
TTITLE6=Twisted dreams
TTITLE7=Tomorrow(Orchestral Version)
TTITLE8=CHAMPAGNE GOLD SUPER MARKET
TTITLE9=GO with the Devil
TTITLE10=Gabriel
TTITLE11=ACROSS THE NIGHT(New Vocal Version)
TTITLE12=go crazy
TTITLE13=NOWHERE
TTITLE14=MY WAY
EXTD=YEAR: 2004
EXTT0=
EXTT1=
EXTT2=
EXTT3=
EXTT4=
EXTT5=
EXTT6=
EXTT7=
EXTT8=
EXTT9=
EXTT10=
EXTT11=
EXTT12=
EXTT13=
EXTT14=
PLAYORDER=
